<svg height="128" width="128" viewBox="0 0 21 21" version="1.0" xmlns="http://www.w3.org/2000/svg" class="h-full w-full"><path fill="#FFFFFF" d="M0,0 h21v21H0z" shape-rendering="crispEdges"></path><path fill="#000000" d="M0 0h7v1H0zM8 0h1v1H8zM11 0h1v1H11zM14,0 h7v1H14zM0 1h1v1H0zM6 1h1v1H6zM11 1h1v1H11zM14 1h1v1H14zM20,1 h1v1H20zM0 2h1v1H0zM2 2h3v1H2zM6 2h1v1H6zM8 2h2v1H8zM11 2h2v1H11zM14 2h1v1H14zM16 2h3v1H16zM20,2 h1v1H20zM0 3h1v1H0zM2 3h3v1H2zM6 3h1v1H6zM8 3h3v1H8zM12 3h1v1H12zM14 3h1v1H14zM16 3h3v1H16zM20,3 h1v1H20zM0 4h1v1H0zM2 4h3v1H2zM6 4h1v1H6zM9 4h4v1H9zM14 4h1v1H14zM16 4h3v1H16zM20,4 h1v1H20zM0 5h1v1H0zM6 5h1v1H6zM8 5h1v1H8zM11 5h1v1H11zM14 5h1v1H14zM20,5 h1v1H20zM0 6h7v1H0zM8 6h1v1H8zM10 6h1v1H10zM12 6h1v1H12zM14,6 h7v1H14zM8 7h3v1H8zM1 8h1v1H1zM3 8h1v1H3zM5 8h4v1H5zM10 8h1v1H10zM13 8h3v1H13zM17 8h2v1H17zM20,8 h1v1H20zM1 9h2v1H1zM4 9h1v1H4zM7 9h1v1H7zM12 9h1v1H12zM16 9h2v1H16zM19 9h1v1H19zM0 10h1v1H0zM2 10h1v1H2zM6 10h2v1H6zM9 10h3v1H9zM15 10h1v1H15zM17 10h1v1H17zM19,10 h2v1H19zM0 11h2v1H0zM3 11h1v1H3zM7 11h2v1H7zM13 11h1v1H13zM15 11h2v1H15zM18 11h2v1H18zM0 12h3v1H0zM4 12h1v1H4zM6 12h1v1H6zM8 12h3v1H8zM14,12 h7v1H14zM8 13h5v1H8zM16 13h3v1H16zM20,13 h1v1H20zM0 14h7v1H0zM8 14h1v1H8zM16 14h3v1H16zM0 15h1v1H0zM6 15h1v1H6zM8 15h3v1H8zM12 15h2v1H12zM16 15h1v1H16zM19,15 h2v1H19zM0 16h1v1H0zM2 16h3v1H2zM6 16h1v1H6zM10 16h1v1H10zM13 16h2v1H13zM16 16h1v1H16zM20,16 h1v1H20zM0 17h1v1H0zM2 17h3v1H2zM6 17h1v1H6zM8 17h2v1H8zM11 17h1v1H11zM18,17 h3v1H18zM0 18h1v1H0zM2 18h3v1H2zM6 18h1v1H6zM10 18h1v1H10zM12 18h1v1H12zM15 18h1v1H15zM18 18h1v1H18zM20,18 h1v1H20zM0 19h1v1H0zM6 19h1v1H6zM8 19h3v1H8zM13 19h3v1H13zM17 19h2v1H17zM20,19 h1v1H20zM0 20h7v1H0zM9 20h4v1H9zM18 20h1v1H18z" shape-rendering="crispEdges"></path></svg>